<?xml version="1.0" encoding="UTF-8"?>
<!DOCTYPE svg PUBLIC "-//W3C//DTD SVG 1.1//EN" "http://www.w3.org/Graphics/SVG/1.1/DTD/svg11.dtd">
<svg xmlns="http://www.w3.org/2000/svg" version="1.1" width="144px" height="144px" style="shape-rendering:geometricPrecision; text-rendering:geometricPrecision; image-rendering:optimizeQuality; fill-rule:evenodd; clip-rule:evenodd" xmlns:xlink="http://www.w3.org/1999/xlink">
<g><path style="opacity:0.949" fill="#939393" d="M 101.5,16.5 C 101.029,17.9008 100.362,19.2342 99.5,20.5C 98.7025,20.0431 98.3691,19.3764 98.5,18.5C 98.6682,15.9486 99.6682,15.2819 101.5,16.5 Z"/></g>
<g><path style="opacity:0.867" fill="#bfbfbf" d="M 107.5,17.5 C 107.279,14.9028 106.779,14.9028 106,17.5C 103.971,23.3397 101.804,29.0064 99.5,34.5C 99.6567,33.1266 99.49,31.7932 99,30.5C 96.5915,34.8918 95.0915,39.5584 94.5,44.5C 91.2786,47.6999 91.2786,50.6999 94.5,53.5C 95.1924,52.9747 95.6924,52.3081 96,51.5C 97.7513,53.6308 97.2513,55.2974 94.5,56.5C 93.9344,54.9217 92.9344,53.5884 91.5,52.5C 90.8182,53.2427 90.1515,53.9094 89.5,54.5C 91.4013,46.8644 93.7347,39.3644 96.5,32C 95.9056,31.5357 95.2389,31.369 94.5,31.5C 94.2627,30.209 94.596,29.209 95.5,28.5C 95.3691,29.3764 95.7025,30.0431 96.5,30.5C 97.4992,27.8392 98.4992,25.1725 99.5,22.5C 99.0431,21.7025 98.3764,21.3691 97.5,21.5C 97.5,20.5 97.5,19.5 97.5,18.5C 97.8333,18.5 98.1667,18.5 98.5,18.5C 98.3691,19.3764 98.7025,20.0431 99.5,20.5C 100.362,19.2342 101.029,17.9008 101.5,16.5C 101.833,16.5 102.167,16.5 102.5,16.5C 103.509,13.2802 105.509,12.6135 108.5,14.5C 108.737,15.791 108.404,16.791 107.5,17.5 Z"/></g>
<g><path style="opacity:0.949" fill="#8e8e8f" d="M 107.5,17.5 C 107.5,18.1667 107.5,18.8333 107.5,19.5C 105.358,22.8004 104.025,26.467 103.5,30.5C 102.509,32.4823 101.509,34.4823 100.5,36.5C 99.7025,36.0431 99.3691,35.3764 99.5,34.5C 101.804,29.0064 103.971,23.3397 106,17.5C 106.779,14.9028 107.279,14.9028 107.5,17.5 Z"/></g>
<g><path style="opacity:0.98" fill="#858585" d="M 102.5,16.5 C 103.239,16.369 103.906,16.5357 104.5,17C 103.21,21.3334 101.544,25.5001 99.5,29.5C 99.9479,25.3503 100.948,21.017 102.5,16.5 Z"/></g>
<g><path style="opacity:0.988" fill="#878687" d="M 97.5,21.5 C 98.3764,21.3691 99.0431,21.7025 99.5,22.5C 98.4992,25.1725 97.4992,27.8392 96.5,30.5C 95.7025,30.0431 95.3691,29.3764 95.5,28.5C 96.1667,26.1667 96.8333,23.8333 97.5,21.5 Z"/></g>
<g><path style="opacity:0.847" fill="#bcbcbc" d="M 107.5,19.5 C 108.586,19.62 109.253,20.2867 109.5,21.5C 108.895,24.3162 107.895,26.9828 106.5,29.5C 108.5,30.1667 110.5,30.8333 112.5,31.5C 113.872,33.6198 113.205,34.6198 110.5,34.5C 111.157,37.0101 112.491,39.1768 114.5,41C 113.852,42.4397 113.519,43.9397 113.5,45.5C 112.221,46.968 110.554,47.6347 108.5,47.5C 108.5,48.5 108.5,49.5 108.5,50.5C 110.833,50.5 113.167,50.5 115.5,50.5C 113.777,51.8001 111.61,52.4668 109,52.5C 106.833,52.1667 104.667,51.8333 102.5,51.5C 101.388,50.7348 100.721,49.7348 100.5,48.5C 99.9045,45.8875 99.0712,45.8875 98,48.5C 97.4795,46.7111 97.8129,45.0444 99,43.5C 100,46.1667 101,46.1667 102,43.5C 102.308,44.3081 102.808,44.9747 103.5,45.5C 106.369,41.3772 107.369,37.3772 106.5,33.5C 106.19,31.8564 105.19,30.8564 103.5,30.5C 104.025,26.467 105.358,22.8004 107.5,19.5 Z"/></g>
<g><path style="opacity:0.054" fill="#f7f7f7" d="M 113.5,45.5 C 113.519,43.9397 113.852,42.4397 114.5,41C 112.491,39.1768 111.157,37.0101 110.5,34.5C 113.205,34.6198 113.872,33.6198 112.5,31.5C 110.5,30.8333 108.5,30.1667 106.5,29.5C 107.895,26.9828 108.895,24.3162 109.5,21.5C 109.253,20.2867 108.586,19.62 107.5,19.5C 107.5,18.8333 107.5,18.1667 107.5,17.5C 108.404,16.791 108.737,15.791 108.5,14.5C 105.509,12.6135 103.509,13.2802 102.5,16.5C 102.167,16.5 101.833,16.5 101.5,16.5C 99.6682,15.2819 98.6682,15.9486 98.5,18.5C 98.1667,18.5 97.8333,18.5 97.5,18.5C 97.3249,15.6711 98.6582,14.0045 101.5,13.5C 104.126,12.5508 106.792,12.5508 109.5,13.5C 109.321,15.9541 109.987,18.1208 111.5,20C 110.313,22.7236 109.647,25.5569 109.5,28.5C 112.659,28.9168 114.659,30.7502 115.5,34C 115.241,35.2613 114.574,36.2613 113.5,37C 116.086,39.8735 116.086,42.7068 113.5,45.5 Z"/></g>
<g><path style="opacity:0.714" fill="#dbdbdb" d="M 103.5,30.5 C 105.19,30.8564 106.19,31.8564 106.5,33.5C 105.736,35.7397 104.902,38.0731 104,40.5C 103.667,39.1667 103.333,37.8333 103,36.5C 101.012,40.1172 99.5119,40.1172 98.5,36.5C 98.3284,35.5084 98.6618,34.8417 99.5,34.5C 99.3691,35.3764 99.7025,36.0431 100.5,36.5C 101.509,34.4823 102.509,32.4823 103.5,30.5 Z"/></g>
<g><path style="opacity:0.996" fill="#8a8a8a" d="M 99.5,34.5 C 98.6618,34.8417 98.3284,35.5084 98.5,36.5C 97.1667,39.1667 95.8333,41.8333 94.5,44.5C 95.0915,39.5584 96.5915,34.8918 99,30.5C 99.49,31.7932 99.6567,33.1266 99.5,34.5 Z"/></g>
<g><path style="opacity:0.992" fill="#949494" d="M 94.5,31.5 C 95.2389,31.369 95.9056,31.5357 96.5,32C 93.7347,39.3644 91.4013,46.8644 89.5,54.5C 88.6236,54.6309 87.9569,54.2975 87.5,53.5C 88.9597,50.9711 89.4597,48.3044 89,45.5C 85.9948,54.5806 85.1614,54.5806 86.5,45.5C 88.6145,41.8884 89.6145,37.8884 89.5,33.5C 91.1238,33.3601 92.2904,34.0267 93,35.5C 93.7914,34.255 94.2914,32.9217 94.5,31.5 Z"/></g>
<g><path style="opacity:0.36" fill="#f7f7f7" d="M 66.5,67.5 C 66.5,68.8333 66.5,70.1667 66.5,71.5C 64.703,72.393 63.3696,73.7263 62.5,75.5C 63.8333,76.5 63.8333,77.5 62.5,78.5C 62.1667,78.5 61.8333,78.5 61.5,78.5C 59.5331,77.3677 57.6998,77.7011 56,79.5C 55.8333,79.1667 55.6667,78.8333 55.5,78.5C 56.8333,77.5 58.1667,76.5 59.5,75.5C 57.939,74.6527 56.439,74.9861 55,76.5C 54.5,75.3333 53.6667,74.5 52.5,74C 54.2705,73.4646 54.6039,72.6313 53.5,71.5C 52.135,72.8069 50.8016,72.8069 49.5,71.5C 49.3433,70.1266 49.51,68.7932 50,67.5C 50.8928,68.7112 51.7261,68.7112 52.5,67.5C 48.5,64.5 44.5,61.5 40.5,58.5C 41.3966,58.3309 42.3966,57.9976 43.5,57.5C 41.208,56.2101 39.208,54.5435 37.5,52.5C 38.8587,50.694 38.5254,49.194 36.5,48C 35.0337,47.3645 33.7003,46.5312 32.5,45.5C 31.7025,45.9569 31.3691,46.6236 31.5,47.5C 27.9922,46.3366 24.9922,44.3366 22.5,41.5C 20.0221,43.5637 20.0221,45.5637 22.5,47.5C 21.2723,49.321 19.6056,50.321 17.5,50.5C 17.5,49.8333 17.5,49.1667 17.5,48.5C 19.0281,48.4827 19.5281,47.816 19,46.5C 17.8289,45.1068 16.3289,44.2735 14.5,44C 16.3963,42.9354 16.563,42.1021 15,41.5C 13.9701,41.8361 13.4701,42.5028 13.5,43.5C 9.75038,43.8407 9.08371,45.174 11.5,47.5C 10.3881,48.2652 9.72142,49.2652 9.5,50.5C 6.09409,44.1795 7.26076,38.8462 13,34.5C 16.4402,36.0317 18.4402,38.6984 19,42.5C 20.9498,39.0126 23.2831,38.6793 26,41.5C 26.5613,40.9781 27.228,40.6448 28,40.5C 35.3564,43.6352 42.5231,47.1352 49.5,51C 51.96,52.4578 54.1266,54.2911 56,56.5C 58.7533,61.0076 61.7533,65.3409 65,69.5C 65.2784,68.5842 65.7784,67.9175 66.5,67.5 Z"/></g>
<g><path style="opacity:0.976" fill="#aeaeae" d="M 17.5,48.5 C 14.5159,48.2132 13.1826,46.5465 13.5,43.5C 13.4701,42.5028 13.9701,41.8361 15,41.5C 16.563,42.1021 16.3963,42.9354 14.5,44C 16.3289,44.2735 17.8289,45.1068 19,46.5C 19.5281,47.816 19.0281,48.4827 17.5,48.5 Z"/></g>
<g><path style="opacity:0.062" fill="#f9f9f9" d="M 113.5,45.5 C 113.5,46.5 113.5,47.5 113.5,48.5C 116.323,48.0254 118.323,49.0254 119.5,51.5C 118.736,57.5771 115.402,61.0771 109.5,62C 111.553,63.0803 113.72,63.9136 116,64.5C 116.667,67.8333 116.667,71.1667 116,74.5C 112.347,78.4991 110.514,82.9991 110.5,88C 109.711,89.6255 108.711,91.1255 107.5,92.5C 104.152,93.2875 100.818,94.1208 97.5,95C 100.155,95.5643 102.821,96.0643 105.5,96.5C 111.487,95.0944 117.487,93.761 123.5,92.5C 124.833,92.6667 126.167,92.8333 127.5,93C 129.84,94.6413 132.173,96.1413 134.5,97.5C 132.167,97.5 129.833,97.5 127.5,97.5C 127.5,96.5 127.5,95.5 127.5,94.5C 123.71,93.8992 120.544,94.8992 118,97.5C 115.205,96.2175 112.372,96.2175 109.5,97.5C 109.137,98.1835 108.804,98.8501 108.5,99.5C 104.534,98.8379 100.534,98.5045 96.5,98.5C 95.8333,98.1667 95.1667,97.8333 94.5,97.5C 94.1667,97.5 93.8333,97.5 93.5,97.5C 92.8333,97.5 92.1667,97.5 91.5,97.5C 91.7214,96.2652 92.3881,95.2652 93.5,94.5C 92.04,91.0494 92.3733,90.3828 94.5,92.5C 96.3113,91.1735 98.3113,90.1735 100.5,89.5C 101.246,88.2638 101.579,86.9305 101.5,85.5C 99.8007,85.4729 98.4674,84.8062 97.5,83.5C 97.5,82.8333 97.8333,82.5 98.5,82.5C 102.226,82.8226 105.893,82.4892 109.5,81.5C 108.948,79.9974 108.948,78.3307 109.5,76.5C 110.5,76.5 111.5,76.5 112.5,76.5C 112.343,75.1266 112.51,73.7932 113,72.5C 113.914,73.6537 114.747,73.487 115.5,72C 114.167,71 114.167,70 115.5,69C 108.297,68.8019 107.964,67.8019 114.5,66C 112.866,65.5065 111.199,65.3398 109.5,65.5C 106.534,65.1103 103.868,65.777 101.5,67.5C 100.818,66.7573 100.151,66.0906 99.5,65.5C 100.806,64.5326 101.473,63.1993 101.5,61.5C 102.833,61.5 104.167,61.5 105.5,61.5C 106.5,61.5 107.5,61.5 108.5,61.5C 108.5,60.5 108.5,59.5 108.5,58.5C 110.5,58.5 112.5,58.5 114.5,58.5C 115.357,55.9567 116.69,53.6234 118.5,51.5C 117.675,50.6143 116.675,50.281 115.5,50.5C 113.167,50.5 110.833,50.5 108.5,50.5C 108.5,49.5 108.5,48.5 108.5,47.5C 110.554,47.6347 112.221,46.968 113.5,45.5 Z"/></g>
<g><path style="opacity:0.104" fill="#eeeeee" d="M 97.5,18.5 C 97.5,19.5 97.5,20.5 97.5,21.5C 96.8333,23.8333 96.1667,26.1667 95.5,28.5C 94.596,29.209 94.2627,30.209 94.5,31.5C 94.2914,32.9217 93.7914,34.255 93,35.5C 92.2904,34.0267 91.1238,33.3601 89.5,33.5C 89.6145,37.8884 88.6145,41.8884 86.5,45.5C 85.2921,46.2341 83.9587,46.5674 82.5,46.5C 82.5,47.5 82.5,48.5 82.5,49.5C 82.6716,50.4916 82.3382,51.1583 81.5,51.5C 81.1667,51.5 80.8333,51.5 80.5,51.5C 79.8333,51.5 79.1667,51.5 78.5,51.5C 78.1667,51.5 77.8333,51.5 77.5,51.5C 78.1047,49.9743 79.2714,48.9743 81,48.5C 81.8221,46.2115 82.4888,43.8782 83,41.5C 84.3333,40.8333 85.6667,40.1667 87,39.5C 87.0226,34.9879 89.0226,31.9879 93,30.5C 94.2309,26.2959 95.7309,22.2959 97.5,18.5 Z"/></g>
<g><path style="opacity:0.722" fill="#8a8a8a" d="M 84.5,42.5 C 86.337,42.6395 86.6704,43.3061 85.5,44.5C 84.7025,44.0431 84.3691,43.3764 84.5,42.5 Z"/></g>
<g><path style="opacity:0.996" fill="#a8a8a8" d="M 106.5,33.5 C 107.369,37.3772 106.369,41.3772 103.5,45.5C 102.808,44.9747 102.308,44.3081 102,43.5C 101,46.1667 100,46.1667 99,43.5C 97.8129,45.0444 97.4795,46.7111 98,48.5C 99.0712,45.8875 99.9045,45.8875 100.5,48.5C 99.9033,48.7352 99.5699,49.2352 99.5,50C 100.34,51.1712 101.173,52.3379 102,53.5C 103.303,54.1122 104.47,54.4455 105.5,54.5C 104.675,55.3857 103.675,55.719 102.5,55.5C 99.2027,55.3287 98.8694,55.9954 101.5,57.5C 99.6531,58.8304 98.1531,58.497 97,56.5C 95.9288,59.1125 95.0955,59.1125 94.5,56.5C 97.2513,55.2974 97.7513,53.6308 96,51.5C 95.6924,52.3081 95.1924,52.9747 94.5,53.5C 91.2786,50.6999 91.2786,47.6999 94.5,44.5C 95.8333,41.8333 97.1667,39.1667 98.5,36.5C 99.5119,40.1172 101.012,40.1172 103,36.5C 103.333,37.8333 103.667,39.1667 104,40.5C 104.902,38.0731 105.736,35.7397 106.5,33.5 Z"/></g>
<g><path style="opacity:0.737" fill="#878787" d="M 13.5,43.5 C 13.1826,46.5465 14.5159,48.2132 17.5,48.5C 17.5,49.1667 17.5,49.8333 17.5,50.5C 15.8297,50.2488 14.3297,49.5822 13,48.5C 12.8333,48.8333 12.6667,49.1667 12.5,49.5C 14.3747,50.4095 15.708,51.7428 16.5,53.5C 15.1667,53.1667 13.8333,52.8333 12.5,52.5C 11.7095,51.5987 10.7095,50.9321 9.5,50.5C 9.72142,49.2652 10.3881,48.2652 11.5,47.5C 9.08371,45.174 9.75038,43.8407 13.5,43.5 Z"/></g>
<g><path style="opacity:0.996" fill="#bebebf" d="M 31.5,47.5 C 31.7214,48.7348 32.3881,49.7348 33.5,50.5C 32.9747,51.1924 32.3081,51.6924 31.5,52C 34.2926,54.7344 33.9593,55.7344 30.5,55C 34.8333,58.1667 39.1667,61.3333 43.5,64.5C 42.7261,65.7112 41.8928,65.7112 41,64.5C 40.6886,65.7425 41.1886,66.7425 42.5,67.5C 42.0431,68.2975 41.3764,68.6309 40.5,68.5C 36.2578,66.5932 32.2578,64.2599 28.5,61.5C 28.1667,60.8333 27.8333,60.1667 27.5,59.5C 29.6778,60.9293 32.0111,61.7627 34.5,62C 30.6756,58.9209 26.6756,56.0876 22.5,53.5C 21.8076,54.0253 21.3076,54.6919 21,55.5C 19.6703,54.4178 18.1703,53.7512 16.5,53.5C 15.708,51.7428 14.3747,50.4095 12.5,49.5C 12.6667,49.1667 12.8333,48.8333 13,48.5C 14.3297,49.5822 15.8297,50.2488 17.5,50.5C 19.6056,50.321 21.2723,49.321 22.5,47.5C 20.0221,45.5637 20.0221,43.5637 22.5,41.5C 24.9922,44.3366 27.9922,46.3366 31.5,47.5 Z"/></g>
<g><path style="opacity:0.929" fill="#d0d0d0" d="M 77.5,51.5 C 77.8333,51.5 78.1667,51.5 78.5,51.5C 79.1667,54.1667 79.8333,54.1667 80.5,51.5C 80.8333,51.5 81.1667,51.5 81.5,51.5C 80.8683,56.4338 79.3683,61.1005 77,65.5C 76.8968,62.0062 77.7301,58.6728 79.5,55.5C 79.1667,55.1667 78.8333,54.8333 78.5,54.5C 77.134,58.5846 74.8006,61.9179 71.5,64.5C 74.1149,66.6368 74.1149,68.6368 71.5,70.5C 71.1583,69.6618 70.4916,69.3284 69.5,69.5C 69.44,68.9569 69.1067,68.6236 68.5,68.5C 67.8243,69.6016 67.1577,70.6016 66.5,71.5C 66.5,70.1667 66.5,68.8333 66.5,67.5C 68.5953,65.0229 70.9287,62.6895 73.5,60.5C 74.4685,57.2314 75.8019,54.2314 77.5,51.5 Z"/></g>
<g><path style="opacity:0.969" fill="#676767" d="M 78.5,51.5 C 79.1667,51.5 79.8333,51.5 80.5,51.5C 79.8333,54.1667 79.1667,54.1667 78.5,51.5 Z"/></g>
<g><path style="opacity:0.996" fill="#a3a2a3" d="M 12.5,52.5 C 13.8333,52.8333 15.1667,53.1667 16.5,53.5C 18.1703,53.7512 19.6703,54.4178 21,55.5C 21.3076,54.6919 21.8076,54.0253 22.5,53.5C 26.6756,56.0876 30.6756,58.9209 34.5,62C 32.0111,61.7627 29.6778,60.9293 27.5,59.5C 25.5336,58.5588 23.5336,57.5588 21.5,56.5C 21.5,57.5 21.5,58.5 21.5,59.5C 18.328,57.7481 15.328,55.7481 12.5,53.5C 12.1667,53.6667 11.8333,53.8333 11.5,54C 15.7776,57.176 15.4443,58.0093 10.5,56.5C 10.1568,54.5168 10.8235,53.1834 12.5,52.5 Z"/></g>
<g><path style="opacity:0.988" fill="#d1d1d1" d="M 100.5,48.5 C 100.721,49.7348 101.388,50.7348 102.5,51.5C 104.667,51.8333 106.833,52.1667 109,52.5C 111.61,52.4668 113.777,51.8001 115.5,50.5C 116.675,50.281 117.675,50.6143 118.5,51.5C 116.69,53.6234 115.357,55.9567 114.5,58.5C 112.5,58.5 110.5,58.5 108.5,58.5C 108.5,59.5 108.5,60.5 108.5,61.5C 107.5,61.5 106.5,61.5 105.5,61.5C 105.119,60.0689 104.119,59.2355 102.5,59C 104.931,57.9076 104.931,56.7409 102.5,55.5C 103.675,55.719 104.675,55.3857 105.5,54.5C 104.47,54.4455 103.303,54.1122 102,53.5C 101.173,52.3379 100.34,51.1712 99.5,50C 99.5699,49.2352 99.9033,48.7352 100.5,48.5 Z"/></g>
<g><path style="opacity:0.996" fill="#bdbdbd" d="M 102.5,55.5 C 104.931,56.7409 104.931,57.9076 102.5,59C 104.119,59.2355 105.119,60.0689 105.5,61.5C 104.167,61.5 102.833,61.5 101.5,61.5C 101.473,63.1993 100.806,64.5326 99.5,65.5C 95.1539,65.6657 90.8206,65.499 86.5,65C 88.2182,64.654 89.8849,64.154 91.5,63.5C 93.2141,64.6085 93.8808,63.9418 93.5,61.5C 98.8333,60.8333 98.8333,60.1667 93.5,59.5C 93.2627,58.209 93.596,57.209 94.5,56.5C 95.0955,59.1125 95.9288,59.1125 97,56.5C 98.1531,58.497 99.6531,58.8304 101.5,57.5C 98.8694,55.9954 99.2027,55.3287 102.5,55.5 Z"/></g>
<g><path style="opacity:0.761" fill="#838283" d="M 27.5,59.5 C 27.8333,60.1667 28.1667,60.8333 28.5,61.5C 27.8333,62.1667 27.1667,62.8333 26.5,63.5C 24.5056,62.6503 22.5056,62.1503 20.5,62C 21.5,62.8333 22.5,63.6667 23.5,64.5C 22.9747,65.1924 22.3081,65.6924 21.5,66C 23.3586,67.6924 25.3586,69.1924 27.5,70.5C 27.0431,71.2975 26.3764,71.6309 25.5,71.5C 22.3027,72.1124 20.9694,74.1124 21.5,77.5C 20.5655,76.4324 20.2322,75.099 20.5,73.5C 19.5,73.5 18.5,73.5 17.5,73.5C 17.6287,71.7839 17.962,70.1172 18.5,68.5C 18.5,67.1667 17.8333,66.5 16.5,66.5C 15.003,62.8351 13.003,59.5017 10.5,56.5C 15.4443,58.0093 15.7776,57.176 11.5,54C 11.8333,53.8333 12.1667,53.6667 12.5,53.5C 15.328,55.7481 18.328,57.7481 21.5,59.5C 21.5,58.5 21.5,57.5 21.5,56.5C 23.5336,57.5588 25.5336,58.5588 27.5,59.5 Z"/></g>
<g><path style="opacity:0.996" fill="#a4a3a4" d="M 86.5,45.5 C 85.1614,54.5806 85.9948,54.5806 89,45.5C 89.4597,48.3044 88.9597,50.9711 87.5,53.5C 87.9569,54.2975 88.6236,54.6309 89.5,54.5C 90.1515,53.9094 90.8182,53.2427 91.5,52.5C 92.9344,53.5884 93.9344,54.9217 94.5,56.5C 93.596,57.209 93.2627,58.209 93.5,59.5C 98.8333,60.1667 98.8333,60.8333 93.5,61.5C 93.8808,63.9418 93.2141,64.6085 91.5,63.5C 89.8849,64.154 88.2182,64.654 86.5,65C 90.8206,65.499 95.1539,65.6657 99.5,65.5C 96.1027,66.1982 92.6027,66.8648 89,67.5C 87.0967,67.3062 85.2633,67.3062 83.5,67.5C 82.8076,66.9747 82.3076,66.3081 82,65.5C 80.9288,68.1125 80.0955,68.1125 79.5,65.5C 79.7553,62.9837 80.5886,60.6504 82,58.5C 84.2897,59.41 85.4563,58.41 85.5,55.5C 85.3333,54.8333 85.1667,54.1667 85,53.5C 84.3333,54.8333 83.6667,56.1667 83,57.5C 82.6386,54.5629 83.1386,51.7296 84.5,49C 84.3333,48.5 84.1667,48 84,47.5C 83.7216,48.4158 83.2216,49.0825 82.5,49.5C 82.5,48.5 82.5,47.5 82.5,46.5C 83.9587,46.5674 85.2921,46.2341 86.5,45.5 Z"/></g>
<g><path style="opacity:0.988" fill="#e4e4e4" d="M 49.5,71.5 C 48.2652,71.2786 47.2652,70.6119 46.5,69.5C 45.8182,70.2427 45.1515,70.9094 44.5,71.5C 42.8784,70.8776 41.5451,69.8776 40.5,68.5C 41.3764,68.6309 42.0431,68.2975 42.5,67.5C 41.1886,66.7425 40.6886,65.7425 41,64.5C 41.8928,65.7112 42.7261,65.7112 43.5,64.5C 39.1667,61.3333 34.8333,58.1667 30.5,55C 33.9593,55.7344 34.2926,54.7344 31.5,52C 32.3081,51.6924 32.9747,51.1924 33.5,50.5C 32.3881,49.7348 31.7214,48.7348 31.5,47.5C 31.3691,46.6236 31.7025,45.9569 32.5,45.5C 33.7003,46.5312 35.0337,47.3645 36.5,48C 38.5254,49.194 38.8587,50.694 37.5,52.5C 39.208,54.5435 41.208,56.2101 43.5,57.5C 42.3966,57.9976 41.3966,58.3309 40.5,58.5C 44.5,61.5 48.5,64.5 52.5,67.5C 51.7261,68.7112 50.8928,68.7112 50,67.5C 49.51,68.7932 49.3433,70.1266 49.5,71.5 Z"/></g>
<g><path style="opacity:0.965" fill="#515151" d="M 16.5,66.5 C 17.8333,66.5 18.5,67.1667 18.5,68.5C 17.1667,68.5 16.5,67.8333 16.5,66.5 Z"/></g>
<g><path style="opacity:0.98" fill="#757575" d="M 70.5,66.5 C 72.337,66.6395 72.6704,67.3061 71.5,68.5C 70.7025,68.0431 70.3691,67.3764 70.5,66.5 Z"/></g>
<g><path style="opacity:0.996" fill="#b7b7b7" d="M 79.5,65.5 C 80.0955,68.1125 80.9288,68.1125 82,65.5C 82.3076,66.3081 82.8076,66.9747 83.5,67.5C 85.2633,67.3062 87.0967,67.3062 89,67.5C 92.6027,66.8648 96.1027,66.1982 99.5,65.5C 100.151,66.0906 100.818,66.7573 101.5,67.5C 103.868,65.777 106.534,65.1103 109.5,65.5C 107.958,66.1635 106.291,66.8302 104.5,67.5C 105.5,68.1667 106.5,68.8333 107.5,69.5C 102.349,70.1668 97.3489,70.8335 92.5,71.5C 86.5,71.5 80.5,71.5 74.5,71.5C 74.4914,69.6916 74.9914,68.0249 76,66.5C 76.414,66.9574 76.914,67.2907 77.5,67.5C 78.1818,66.7573 78.8485,66.0906 79.5,65.5 Z"/></g>
<g><path style="opacity:0.996" fill="#b0b0b1" d="M 28.5,61.5 C 32.2578,64.2599 36.2578,66.5932 40.5,68.5C 41.5451,69.8776 42.8784,70.8776 44.5,71.5C 44.4226,72.7498 43.756,73.5831 42.5,74C 43.3081,74.3076 43.9747,74.8076 44.5,75.5C 39.1605,79.4885 39.4939,80.1551 45.5,77.5C 45.369,78.2389 45.5357,78.9056 46,79.5C 47.9643,77.3123 49.4643,77.3123 50.5,79.5C 49.1667,79.8333 47.8333,80.1667 46.5,80.5C 41.707,82.5506 37.707,85.5506 34.5,89.5C 33.0992,89.0291 31.7658,88.3624 30.5,87.5C 30.6236,86.8933 30.9569,86.56 31.5,86.5C 35.1929,86.1197 38.5263,84.2863 41.5,81C 39.2403,80.9558 37.2403,81.7892 35.5,83.5C 34.707,82.6446 35.0403,81.8113 36.5,81C 34.8374,80.7351 33.3374,81.2351 32,82.5C 31.5357,81.9056 31.369,81.2389 31.5,80.5C 34.0071,80.0038 36.0071,78.6705 37.5,76.5C 34.8294,73.9878 32.4961,74.3211 30.5,77.5C 29.8333,77.5 29.1667,77.5 28.5,77.5C 29.4787,75.8546 30.812,74.5213 32.5,73.5C 31.9747,72.8076 31.3081,72.3076 30.5,72C 33.1667,71 33.1667,70 30.5,69C 31.3081,68.6924 31.9747,68.1924 32.5,67.5C 30.4645,66.115 28.4645,64.7817 26.5,63.5C 27.1667,62.8333 27.8333,62.1667 28.5,61.5 Z"/></g>
<g><path style="opacity:0.949" fill="#dedede" d="M 109.5,65.5 C 111.199,65.3398 112.866,65.5065 114.5,66C 107.964,67.8019 108.297,68.8019 115.5,69C 114.167,70 114.167,71 115.5,72C 114.747,73.487 113.914,73.6537 113,72.5C 112.51,73.7932 112.343,75.1266 112.5,76.5C 111.5,76.5 110.5,76.5 109.5,76.5C 108.948,78.3307 108.948,79.9974 109.5,81.5C 105.893,82.4892 102.226,82.8226 98.5,82.5C 99.2625,81.7321 100.263,81.2321 101.5,81C 100.5,80.6667 99.5,80.3333 98.5,80C 100.101,79.7266 101.601,79.2266 103,78.5C 103.333,78.8333 103.667,79.1667 104,79.5C 104.456,78.2559 103.956,77.4226 102.5,77C 108.948,75.2685 108.948,74.4351 102.5,74.5C 95.825,74.6663 89.1583,74.4996 82.5,74C 90.8842,73.8311 99.2175,73.1645 107.5,72C 102.511,71.5007 97.5111,71.3341 92.5,71.5C 97.3489,70.8335 102.349,70.1668 107.5,69.5C 106.5,68.8333 105.5,68.1667 104.5,67.5C 106.291,66.8302 107.958,66.1635 109.5,65.5 Z"/></g>
<g><path style="opacity:0.992" fill="#9c9b9c" d="M 26.5,63.5 C 28.4645,64.7817 30.4645,66.115 32.5,67.5C 31.9747,68.1924 31.3081,68.6924 30.5,69C 33.1667,70 33.1667,71 30.5,72C 31.3081,72.3076 31.9747,72.8076 32.5,73.5C 30.812,74.5213 29.4787,75.8546 28.5,77.5C 28.1034,78.525 27.4368,78.6917 26.5,78C 26.8333,77.6667 27.1667,77.3333 27.5,77C 24.972,75.9826 24.972,74.8159 27.5,73.5C 26.7573,72.8182 26.0906,72.1515 25.5,71.5C 26.3764,71.6309 27.0431,71.2975 27.5,70.5C 25.3586,69.1924 23.3586,67.6924 21.5,66C 22.3081,65.6924 22.9747,65.1924 23.5,64.5C 22.5,63.6667 21.5,62.8333 20.5,62C 22.5056,62.1503 24.5056,62.6503 26.5,63.5 Z"/></g>
<g><path style="opacity:0.996" fill="#797979" d="M 79.5,65.5 C 78.8485,66.0906 78.1818,66.7573 77.5,67.5C 76.914,67.2907 76.414,66.9574 76,66.5C 74.9914,68.0249 74.4914,69.6916 74.5,71.5C 80.5,71.5 86.5,71.5 92.5,71.5C 86.7661,72.1858 80.9328,72.8524 75,73.5C 75.8336,78.1676 77.0002,82.8343 78.5,87.5C 78.5,88.1667 78.5,88.8333 78.5,89.5C 76.2256,84.86 74.2256,80.0267 72.5,75C 69.5619,75.4111 66.8952,76.5778 64.5,78.5C 67.5566,75.9642 69.8899,73.2976 71.5,70.5C 74.1149,68.6368 74.1149,66.6368 71.5,64.5C 74.8006,61.9179 77.134,58.5846 78.5,54.5C 78.8333,54.8333 79.1667,55.1667 79.5,55.5C 77.7301,58.6728 76.8968,62.0062 77,65.5C 79.3683,61.1005 80.8683,56.4338 81.5,51.5C 82.3382,51.1583 82.6716,50.4916 82.5,49.5C 83.2216,49.0825 83.7216,48.4158 84,47.5C 84.1667,48 84.3333,48.5 84.5,49C 83.1386,51.7296 82.6386,54.5629 83,57.5C 83.6667,56.1667 84.3333,54.8333 85,53.5C 85.1667,54.1667 85.3333,54.8333 85.5,55.5C 85.4563,58.41 84.2897,59.41 82,58.5C 80.5886,60.6504 79.7553,62.9837 79.5,65.5 Z"/></g>
<g><path style="opacity:0.976" fill="#cbcbcb" d="M 49.5,71.5 C 49.4226,72.7498 48.756,73.5831 47.5,74C 49.7508,76.0129 49.0841,77.1796 45.5,77.5C 39.4939,80.1551 39.1605,79.4885 44.5,75.5C 43.9747,74.8076 43.3081,74.3076 42.5,74C 43.756,73.5831 44.4226,72.7498 44.5,71.5C 45.1515,70.9094 45.8182,70.2427 46.5,69.5C 47.2652,70.6119 48.2652,71.2786 49.5,71.5 Z"/></g>
<g><path style="opacity:0.949" fill="#757575" d="M 69.5,69.5 C 68.614,73.1195 66.2807,75.1195 62.5,75.5C 63.3696,73.7263 64.703,72.393 66.5,71.5C 67.1577,70.6016 67.8243,69.6016 68.5,68.5C 69.1067,68.6236 69.44,68.9569 69.5,69.5 Z"/></g>
<g><path style="opacity:0.996" fill="#9f9f9f" d="M 69.5,69.5 C 70.4916,69.3284 71.1583,69.6618 71.5,70.5C 69.8899,73.2976 67.5566,75.9642 64.5,78.5C 63.8333,78.5 63.1667,78.5 62.5,78.5C 63.8333,77.5 63.8333,76.5 62.5,75.5C 66.2807,75.1195 68.614,73.1195 69.5,69.5 Z"/></g>
<g><path style="opacity:0.992" fill="#666666" d="M 25.5,71.5 C 26.0906,72.1515 26.7573,72.8182 27.5,73.5C 24.972,74.8159 24.972,75.9826 27.5,77C 27.1667,77.3333 26.8333,77.6667 26.5,78C 27.4368,78.6917 28.1034,78.525 28.5,77.5C 29.1667,77.5 29.8333,77.5 30.5,77.5C 29.9653,79.4456 28.632,80.4456 26.5,80.5C 24.7392,79.6873 23.0725,78.6873 21.5,77.5C 20.9694,74.1124 22.3027,72.1124 25.5,71.5 Z"/></g>
<g><path style="opacity:0.992" fill="#939393" d="M 31.5,80.5 C 29.368,80.5544 28.0347,81.5544 27.5,83.5C 26.596,82.791 26.2627,81.791 26.5,80.5C 28.632,80.4456 29.9653,79.4456 30.5,77.5C 32.4961,74.3211 34.8294,73.9878 37.5,76.5C 36.0071,78.6705 34.0071,80.0038 31.5,80.5 Z"/></g>
<g><path style="opacity:0.996" fill="#aaaaaa" d="M 92.5,71.5 C 97.5111,71.3341 102.511,71.5007 107.5,72C 99.2175,73.1645 90.8842,73.8311 82.5,74C 89.1583,74.4996 95.825,74.6663 102.5,74.5C 100.782,75.224 98.9483,75.8906 97,76.5C 92.8745,75.6045 88.8745,75.6045 85,76.5C 84.3333,77.5 84.3333,78.5 85,79.5C 86.3528,78.2958 88.0194,77.6292 90,77.5C 95.7956,77.3245 95.9623,78.1578 90.5,80C 92.5912,81.7264 94.9245,82.8931 97.5,83.5C 96.5514,84.1524 95.3847,84.4857 94,84.5C 92.3419,84.3248 91.0086,83.6582 90,82.5C 87.0651,85.0918 86.8985,87.9252 89.5,91C 89.1667,91.1667 88.8333,91.3333 88.5,91.5C 87.4164,90.3349 86.5831,89.0016 86,87.5C 85.1072,88.7112 84.2739,88.7112 83.5,87.5C 82.8641,85.22 81.8641,83.22 80.5,81.5C 79.788,80.2613 78.788,79.7613 77.5,80C 79.2688,82.4956 79.6022,84.9956 78.5,87.5C 77.0002,82.8343 75.8336,78.1676 75,73.5C 80.9328,72.8524 86.7661,72.1858 92.5,71.5 Z"/></g>
<g><path style="opacity:0.992" fill="#666666" d="M 61.5,78.5 C 61.8333,78.5 62.1667,78.5 62.5,78.5C 63.1667,78.5 63.8333,78.5 64.5,78.5C 63.8333,79.5 63.1667,80.5 62.5,81.5C 60.965,82.3543 59.6316,82.3543 58.5,81.5C 59.6935,80.7281 60.6935,79.7281 61.5,78.5 Z"/></g>
<g><path style="opacity:0.996" fill="#c8c8c8" d="M 102.5,74.5 C 108.948,74.4351 108.948,75.2685 102.5,77C 103.956,77.4226 104.456,78.2559 104,79.5C 103.667,79.1667 103.333,78.8333 103,78.5C 101.601,79.2266 100.101,79.7266 98.5,80C 99.5,80.3333 100.5,80.6667 101.5,81C 100.263,81.2321 99.2625,81.7321 98.5,82.5C 97.8333,82.5 97.5,82.8333 97.5,83.5C 94.9245,82.8931 92.5912,81.7264 90.5,80C 95.9623,78.1578 95.7956,77.3245 90,77.5C 88.0194,77.6292 86.3528,78.2958 85,79.5C 84.3333,78.5 84.3333,77.5 85,76.5C 88.8745,75.6045 92.8745,75.6045 97,76.5C 98.9483,75.8906 100.782,75.224 102.5,74.5 Z"/></g>
<g><path style="opacity:0.996" fill="#8c8b8c" d="M 60.5,88.5 C 60.5,87.8333 60.5,87.1667 60.5,86.5C 63.4429,83.8196 63.1096,83.153 59.5,84.5C 58.9094,83.8485 58.2427,83.1818 57.5,82.5C 57.6236,81.8933 57.9569,81.56 58.5,81.5C 59.6316,82.3543 60.965,82.3543 62.5,81.5C 65.7206,80.2907 68.7206,78.624 71.5,76.5C 75.0911,84.5366 77.5911,92.8699 79,101.5C 76.3279,94.7861 73.6612,88.1194 71,81.5C 67.7007,84.226 64.2007,86.5593 60.5,88.5 Z"/></g>
<g><path style="opacity:0.992" fill="#e2e2e2" d="M 49.5,71.5 C 50.8016,72.8069 52.135,72.8069 53.5,71.5C 54.6039,72.6313 54.2705,73.4646 52.5,74C 53.6667,74.5 54.5,75.3333 55,76.5C 56.439,74.9861 57.939,74.6527 59.5,75.5C 58.1667,76.5 56.8333,77.5 55.5,78.5C 55.6667,78.8333 55.8333,79.1667 56,79.5C 57.6998,77.7011 59.5331,77.3677 61.5,78.5C 60.6935,79.7281 59.6935,80.7281 58.5,81.5C 57.9569,81.56 57.6236,81.8933 57.5,82.5C 58.2427,83.1818 58.9094,83.8485 59.5,84.5C 58.8333,84.8333 58.1667,85.1667 57.5,85.5C 55.632,84.2431 53.9653,84.5764 52.5,86.5C 53.6034,86.9976 54.6034,87.3309 55.5,87.5C 53.9665,88.7362 52.2998,89.2362 50.5,89C 49.2889,87.8869 49.2889,86.7202 50.5,85.5C 51.8333,84.5 53.1667,83.5 54.5,82.5C 53.7261,81.2888 52.8928,81.2888 52,82.5C 51.6886,81.2575 52.1886,80.2575 53.5,79.5C 52.5754,78.4376 51.5754,78.4376 50.5,79.5C 49.4643,77.3123 47.9643,77.3123 46,79.5C 45.5357,78.9056 45.369,78.2389 45.5,77.5C 49.0841,77.1796 49.7508,76.0129 47.5,74C 48.756,73.5831 49.4226,72.7498 49.5,71.5 Z"/></g>
<g><path style="opacity:0.98" fill="#737273" d="M 31.5,80.5 C 31.369,81.2389 31.5357,81.9056 32,82.5C 33.3374,81.2351 34.8374,80.7351 36.5,81C 35.0403,81.8113 34.707,82.6446 35.5,83.5C 37.2403,81.7892 39.2403,80.9558 41.5,81C 38.5263,84.2863 35.1929,86.1197 31.5,86.5C 30.1667,85.5 28.8333,84.5 27.5,83.5C 28.0347,81.5544 29.368,80.5544 31.5,80.5 Z"/></g>
<g><path style="opacity:0.976" fill="#878687" d="M 46.5,80.5 C 45.2842,82.4509 43.6175,83.9509 41.5,85C 42.9506,84.7374 44.2839,84.9041 45.5,85.5C 42.5079,87.1712 39.8413,89.1712 37.5,91.5C 34.1213,94.4558 33.1213,93.7891 34.5,89.5C 37.707,85.5506 41.707,82.5506 46.5,80.5 Z"/></g>
<g><path style="opacity:0.996" fill="#5f5e5f" d="M 60.5,86.5 C 58.9826,86.5106 57.8159,87.1772 57,88.5C 56.5304,87.4232 56.6971,86.4232 57.5,85.5C 58.1667,85.1667 58.8333,84.8333 59.5,84.5C 63.1096,83.153 63.4429,83.8196 60.5,86.5 Z"/></g>
<g><path style="opacity:0.992" fill="#b9b9b9" d="M 78.5,89.5 C 81.3963,101.422 85.063,113.088 89.5,124.5C 87.665,123.878 86.4983,122.544 86,120.5C 84,114.5 82,108.5 80,102.5C 80.7098,108.239 81.7098,113.906 83,119.5C 81.1914,115.24 79.6914,110.906 78.5,106.5C 77.8333,104.5 77.1667,102.5 76.5,100.5C 75.7333,96.8512 74.3999,93.5178 72.5,90.5C 72.6465,93.4431 73.3132,96.2764 74.5,99C 74.4301,99.7648 74.0967,100.265 73.5,100.5C 72.6366,97.0772 71.4699,93.7439 70,90.5C 69.6664,92.8473 69.833,95.1806 70.5,97.5C 69.2591,95.0688 68.0924,95.0688 67,97.5C 66.4604,95.8654 66.9604,94.5321 68.5,93.5C 67.9264,91.9411 67.2598,90.4411 66.5,89C 67,88.5 67.5,88 68,87.5C 68.4226,88.9561 69.2559,89.4561 70.5,89C 69.9288,87.7949 69.2621,86.6283 68.5,85.5C 66.1251,87.2238 63.7918,88.8905 61.5,90.5C 60.6618,90.1583 60.3284,89.4916 60.5,88.5C 64.2007,86.5593 67.7007,84.226 71,81.5C 73.6612,88.1194 76.3279,94.7861 79,101.5C 77.5911,92.8699 75.0911,84.5366 71.5,76.5C 68.7206,78.624 65.7206,80.2907 62.5,81.5C 63.1667,80.5 63.8333,79.5 64.5,78.5C 66.8952,76.5778 69.5619,75.4111 72.5,75C 74.2256,80.0267 76.2256,84.86 78.5,89.5 Z"/></g>
<g><path style="opacity:0.996" fill="#7f7f7f" d="M 72.5,90.5 C 71.4217,88.4606 70.4217,86.294 69.5,84C 69.8333,83.8333 70.1667,83.6667 70.5,83.5C 72.1713,85.5098 72.838,87.8431 72.5,90.5 Z"/></g>
<g><path style="opacity:0.98" fill="#c9c9c9" d="M 57.5,85.5 C 56.6971,86.4232 56.5304,87.4232 57,88.5C 57.8159,87.1772 58.9826,86.5106 60.5,86.5C 60.5,87.1667 60.5,87.8333 60.5,88.5C 57.8333,89.8333 55.1667,91.1667 52.5,92.5C 52.6309,91.6236 52.2975,90.9569 51.5,90.5C 50.1667,91.5 48.8333,92.5 47.5,93.5C 46.8333,92.8333 46.1667,92.1667 45.5,91.5C 44.2888,92.2739 44.2888,93.1072 45.5,94C 43.7651,95.9845 42.4317,95.6512 41.5,93C 48.1232,87.2968 47.7898,86.6301 40.5,91C 39.7476,91.6708 39.4142,92.5041 39.5,93.5C 38.8333,92.8333 38.1667,92.1667 37.5,91.5C 39.8413,89.1712 42.5079,87.1712 45.5,85.5C 44.2839,84.9041 42.9506,84.7374 41.5,85C 43.6175,83.9509 45.2842,82.4509 46.5,80.5C 47.8333,80.1667 49.1667,79.8333 50.5,79.5C 51.5754,78.4376 52.5754,78.4376 53.5,79.5C 52.1886,80.2575 51.6886,81.2575 52,82.5C 52.8928,81.2888 53.7261,81.2888 54.5,82.5C 53.1667,83.5 51.8333,84.5 50.5,85.5C 49.2889,86.7202 49.2889,87.8869 50.5,89C 52.2998,89.2362 53.9665,88.7362 55.5,87.5C 54.6034,87.3309 53.6034,86.9976 52.5,86.5C 53.9653,84.5764 55.632,84.2431 57.5,85.5 Z"/></g>
<g><path style="opacity:0.992" fill="#6f6f6f" d="M 60.5,88.5 C 60.3284,89.4916 60.6618,90.1583 61.5,90.5C 62.0431,90.56 62.3764,90.8933 62.5,91.5C 60.3102,93.524 57.9768,95.3573 55.5,97C 56.8333,97 58.1667,97 59.5,97C 57.8082,98.3073 56.4749,99.8073 55.5,101.5C 51.6009,103.386 47.9343,105.719 44.5,108.5C 43.707,107.645 44.0403,106.811 45.5,106C 48.681,103.908 51.681,101.575 54.5,99C 53.1807,98.805 51.8474,98.9717 50.5,99.5C 51.1667,98.5 51.8333,97.5 52.5,96.5C 57.5615,94.161 57.5615,93.4943 52.5,94.5C 52.5,93.8333 52.5,93.1667 52.5,92.5C 55.1667,91.1667 57.8333,89.8333 60.5,88.5 Z"/></g>
<g><path style="opacity:0.996" fill="#c8c8c8" d="M 80.5,81.5 C 81.8641,83.22 82.8641,85.22 83.5,87.5C 84.2739,88.7112 85.1072,88.7112 86,87.5C 86.5831,89.0016 87.4164,90.3349 88.5,91.5C 88.8333,91.3333 89.1667,91.1667 89.5,91C 86.8985,87.9252 87.0651,85.0918 90,82.5C 91.0086,83.6582 92.3419,84.3248 94,84.5C 95.3847,84.4857 96.5514,84.1524 97.5,83.5C 98.4674,84.8062 99.8007,85.4729 101.5,85.5C 101.579,86.9305 101.246,88.2638 100.5,89.5C 98.3113,90.1735 96.3113,91.1735 94.5,92.5C 92.3733,90.3828 92.04,91.0494 93.5,94.5C 92.3881,95.2652 91.7214,96.2652 91.5,97.5C 90.5084,97.3284 89.8417,97.6618 89.5,98.5C 89.1667,98.5 88.8333,98.5 88.5,98.5C 84.5333,86.6437 83.6999,86.9771 86,99.5C 83.6666,94.4022 83.1666,94.7355 84.5,100.5C 84.5,100.833 84.5,101.167 84.5,101.5C 84.2792,104.097 83.7792,104.097 83,101.5C 81.554,97.1863 80.554,92.853 80,88.5C 81,90.5 82,92.5 83,94.5C 83.1667,93.8333 83.3333,93.1667 83.5,92.5C 82.031,88.9572 81.031,85.2905 80.5,81.5 Z"/></g>
<g><path style="opacity:0.992" fill="#656465" d="M 52.5,94.5 C 52.5,95.1667 52.5,95.8333 52.5,96.5C 51.1667,96.8333 49.8333,97.1667 48.5,97.5C 49.0347,95.5544 50.368,94.5544 52.5,94.5 Z"/></g>
<g><path style="opacity:0.996" fill="#ababab" d="M 52.5,96.5 C 52.5,95.8333 52.5,95.1667 52.5,94.5C 57.5615,93.4943 57.5615,94.161 52.5,96.5 Z"/></g>
<g><path style="opacity:0.965" fill="#6a696a" d="M 44.5,98.5 C 43.1667,98.8333 41.8333,99.1667 40.5,99.5C 40.7869,97.8793 41.7869,96.8793 43.5,96.5C 44.2975,96.9569 44.6309,97.6236 44.5,98.5 Z"/></g>
<g><path style="opacity:0.984" fill="#9a999a" d="M 52.5,92.5 C 52.5,93.1667 52.5,93.8333 52.5,94.5C 50.368,94.5544 49.0347,95.5544 48.5,97.5C 47.1667,97.8333 45.8333,98.1667 44.5,98.5C 44.6309,97.6236 44.2975,96.9569 43.5,96.5C 41.7869,96.8793 40.7869,97.8793 40.5,99.5C 39.1667,99.8333 37.8333,100.167 36.5,100.5C 35.0924,98.1403 33.7591,98.4736 32.5,101.5C 27.1475,103.657 22.8142,106.991 19.5,111.5C 18.7784,111.082 18.2784,110.416 18,109.5C 16.1089,111.39 13.9422,112.89 11.5,114C 13.2705,114.535 13.6039,115.369 12.5,116.5C 9.96201,115.743 9.29534,114.41 10.5,112.5C 17.3091,108.403 16.9757,107.736 9.5,110.5C 10.0347,108.554 11.368,107.554 13.5,107.5C 15.5,106.833 17.5,106.167 19.5,105.5C 16.899,108.721 17.5657,109.221 21.5,107C 27.0266,103.293 32.0266,99.126 36.5,94.5C 37.5201,96.9341 38.8534,96.9341 40.5,94.5C 40.3764,93.8933 40.0431,93.56 39.5,93.5C 39.4142,92.5041 39.7476,91.6708 40.5,91C 47.7898,86.6301 48.1232,87.2968 41.5,93C 42.4317,95.6512 43.7651,95.9845 45.5,94C 44.2888,93.1072 44.2888,92.2739 45.5,91.5C 46.1667,92.1667 46.8333,92.8333 47.5,93.5C 48.8333,92.5 50.1667,91.5 51.5,90.5C 52.2975,90.9569 52.6309,91.6236 52.5,92.5 Z"/></g>
<g><path style="opacity:0.973" fill="#9d9d9e" d="M 33.5,95.5 C 30.7251,98.6046 27.3918,100.938 23.5,102.5C 24.8333,100.833 26.1667,99.1667 27.5,97.5C 28.689,94.5774 30.689,93.9107 33.5,95.5 Z"/></g>
<g><path style="opacity:0.98" fill="#afafaf" d="M 52.5,96.5 C 51.8333,97.5 51.1667,98.5 50.5,99.5C 46.4882,101.19 45.8216,100.523 48.5,97.5C 49.8333,97.1667 51.1667,96.8333 52.5,96.5 Z"/></g>
<g><path style="opacity:0.969" fill="#8d8d8e" d="M 80.5,81.5 C 81.031,85.2905 82.031,88.9572 83.5,92.5C 83.3333,93.1667 83.1667,93.8333 83,94.5C 82,92.5 81,90.5 80,88.5C 80.554,92.853 81.554,97.1863 83,101.5C 83.7792,104.097 84.2792,104.097 84.5,101.5C 85.5375,102.93 86.2041,104.597 86.5,106.5C 85.8761,106.917 85.5427,107.584 85.5,108.5C 86.5067,111.19 87.5067,113.856 88.5,116.5C 88.4042,123.486 90.7375,124.82 95.5,120.5C 94.2243,119.355 92.891,119.355 91.5,120.5C 90.6143,119.675 90.281,118.675 90.5,117.5C 95.7344,117.062 99.0677,119.395 100.5,124.5C 97.5725,125.983 94.5725,127.316 91.5,128.5C 91.8432,126.517 91.1765,125.183 89.5,124.5C 85.063,113.088 81.3963,101.422 78.5,89.5C 78.5,88.8333 78.5,88.1667 78.5,87.5C 79.6022,84.9956 79.2688,82.4956 77.5,80C 78.788,79.7613 79.788,80.2613 80.5,81.5 Z"/></g>
<g><path style="opacity:0.945" fill="#616061" d="M 36.5,100.5 C 35.1667,100.833 33.8333,101.167 32.5,101.5C 33.7591,98.4736 35.0924,98.1403 36.5,100.5 Z"/></g>
<g><path style="opacity:0.984" fill="#a6a6a6" d="M 44.5,98.5 C 43.9653,100.446 42.632,101.446 40.5,101.5C 40.5,100.833 40.5,100.167 40.5,99.5C 41.8333,99.1667 43.1667,98.8333 44.5,98.5 Z"/></g>
<g><path style="opacity:0.988" fill="#767676" d="M 70.5,104.5 C 69.6981,105.952 69.1981,107.618 69,109.5C 68.2432,107.685 67.4098,106.019 66.5,104.5C 66.6713,101.203 66.0046,100.869 64.5,103.5C 63.8076,102.975 63.3076,102.308 63,101.5C 62.3292,102.252 61.4959,102.586 60.5,102.5C 60.9528,101.542 61.6195,100.708 62.5,100C 60.0542,98.5172 60.3876,97.3505 63.5,96.5C 63.7365,97.2472 64.0698,98.0805 64.5,99C 66.6314,99.5431 68.6314,100.376 70.5,101.5C 71.6527,102.687 71.6527,103.687 70.5,104.5 Z"/></g>
<g><path style="opacity:0.992" fill="#9f9e9f" d="M 88.5,98.5 C 88.1348,100.588 88.1348,102.921 88.5,105.5C 87.8676,103.257 86.5342,101.591 84.5,100.5C 83.1666,94.7355 83.6666,94.4022 86,99.5C 83.6999,86.9771 84.5333,86.6437 88.5,98.5 Z"/></g>
<g><path style="opacity:0.996" fill="#949394" d="M 134.5,97.5 C 134.5,98.1667 134.5,98.8333 134.5,99.5C 129.968,99.1818 125.634,99.5151 121.5,100.5C 118.223,100.784 115.057,100.451 112,99.5C 111.833,99.8333 111.667,100.167 111.5,100.5C 112.376,101.251 113.376,101.751 114.5,102C 113.244,102.417 112.577,103.25 112.5,104.5C 111.849,103.909 111.182,103.243 110.5,102.5C 109.702,102.957 109.369,103.624 109.5,104.5C 108.983,102.81 108.65,101.143 108.5,99.5C 108.804,98.8501 109.137,98.1835 109.5,97.5C 112.372,96.2175 115.205,96.2175 118,97.5C 120.544,94.8992 123.71,93.8992 127.5,94.5C 127.5,95.5 127.5,96.5 127.5,97.5C 129.833,97.5 132.167,97.5 134.5,97.5 Z"/></g>
<g><path style="opacity:0.996" fill="#b8b8b8" d="M 134.5,99.5 C 134.5,101.5 134.5,103.5 134.5,105.5C 134.167,105.5 133.833,105.5 133.5,105.5C 132.051,103.836 130.051,103.002 127.5,103C 130.028,102.002 130.028,101.169 127.5,100.5C 126.353,100.818 125.519,101.484 125,102.5C 124,99.8333 123,99.8333 122,102.5C 121.536,101.906 121.369,101.239 121.5,100.5C 125.634,99.5151 129.968,99.1818 134.5,99.5 Z"/></g>
<g><path style="opacity:0.978" fill="#5a595a" d="M 84.5,101.5 C 84.5,101.167 84.5,100.833 84.5,100.5C 86.5342,101.591 87.8676,103.257 88.5,105.5C 88.7678,107.099 88.4345,108.432 87.5,109.5C 86.8902,108.609 86.5569,107.609 86.5,106.5C 86.2041,104.597 85.5375,102.93 84.5,101.5 Z"/></g>
<g><path style="opacity:0.957" fill="#646464" d="M 36.5,94.5 C 32.0266,99.126 27.0266,103.293 21.5,107C 17.5657,109.221 16.899,108.721 19.5,105.5C 21.4044,105.262 22.7377,104.262 23.5,102.5C 27.3918,100.938 30.7251,98.6046 33.5,95.5C 34.391,94.8902 35.391,94.5569 36.5,94.5 Z"/></g>
<g><path style="opacity:0.949" fill="#6d6d6e" d="M 48.5,97.5 C 45.8216,100.523 46.4882,101.19 50.5,99.5C 48.2683,101.963 45.6016,103.963 42.5,105.5C 42.9528,104.542 43.6195,103.708 44.5,103C 42.4944,103.15 40.4944,103.65 38.5,104.5C 39.1667,103.5 39.8333,102.5 40.5,101.5C 42.632,101.446 43.9653,100.446 44.5,98.5C 45.8333,98.1667 47.1667,97.8333 48.5,97.5 Z"/></g>
<g><path style="opacity:0.973" fill="#9a999a" d="M 70.5,97.5 C 71.1814,99.1585 72.0147,100.825 73,102.5C 73.4643,101.906 73.631,101.239 73.5,100.5C 74.0967,100.265 74.4301,99.7648 74.5,99C 73.3132,96.2764 72.6465,93.4431 72.5,90.5C 74.3999,93.5178 75.7333,96.8512 76.5,100.5C 75.6618,100.842 75.3284,101.508 75.5,102.5C 74.9033,102.735 74.5699,103.235 74.5,104C 76.645,110.456 78.645,116.956 80.5,123.5C 78.5216,119.997 75.8549,116.997 72.5,114.5C 71.9604,111.135 71.2937,107.802 70.5,104.5C 71.6527,103.687 71.6527,102.687 70.5,101.5C 68.6314,100.376 66.6314,99.5431 64.5,99C 64.0698,98.0805 63.7365,97.2472 63.5,96.5C 60.3876,97.3505 60.0542,98.5172 62.5,100C 61.6195,100.708 60.9528,101.542 60.5,102.5C 59.7611,102.631 59.0944,102.464 58.5,102C 59.4506,101.282 59.6172,100.449 59,99.5C 58.1841,100.823 57.0174,101.489 55.5,101.5C 56.4749,99.8073 57.8082,98.3073 59.5,97C 58.1667,97 56.8333,97 55.5,97C 57.9768,95.3573 60.3102,93.524 62.5,91.5C 62.3764,90.8933 62.0431,90.56 61.5,90.5C 63.7918,88.8905 66.1251,87.2238 68.5,85.5C 69.2621,86.6283 69.9288,87.7949 70.5,89C 69.2559,89.4561 68.4226,88.9561 68,87.5C 67.5,88 67,88.5 66.5,89C 67.2598,90.4411 67.9264,91.9411 68.5,93.5C 66.9604,94.5321 66.4604,95.8654 67,97.5C 68.0924,95.0688 69.2591,95.0688 70.5,97.5 Z"/></g>
<g><path style="opacity:0.98" fill="#828282" d="M 73.5,100.5 C 73.631,101.239 73.4643,101.906 73,102.5C 72.0147,100.825 71.1814,99.1585 70.5,97.5C 69.833,95.1806 69.6664,92.8473 70,90.5C 71.4699,93.7439 72.6366,97.0772 73.5,100.5 Z"/></g>
<g><path style="opacity:0.951" fill="#acacac" d="M 23.5,102.5 C 22.7377,104.262 21.4044,105.262 19.5,105.5C 20.0347,103.554 21.368,102.554 23.5,102.5 Z"/></g>
<g><path style="opacity:0.957" fill="#a8a8a9" d="M 40.5,101.5 C 39.8333,102.5 39.1667,103.5 38.5,104.5C 37.1667,104.833 35.8333,105.167 34.5,105.5C 35.8021,103.178 37.8021,101.845 40.5,101.5 Z"/></g>
<g><path style="opacity:0.984" fill="#9c9c9d" d="M 91.5,97.5 C 92.1667,97.5 92.8333,97.5 93.5,97.5C 93.7576,101.44 94.9243,105.107 97,108.5C 96.7073,104.771 95.874,101.104 94.5,97.5C 95.1667,97.8333 95.8333,98.1667 96.5,98.5C 97.3234,101.461 97.99,104.461 98.5,107.5C 99.01,110.539 99.6766,113.539 100.5,116.5C 99.0693,114.732 97.4027,114.065 95.5,114.5C 94.7643,112.459 93.9309,110.459 93,108.5C 92.3486,110.235 92.5153,111.902 93.5,113.5C 92.7573,114.182 92.0906,114.849 91.5,115.5C 89.2036,114.267 87.8702,112.267 87.5,109.5C 88.4345,108.432 88.7678,107.099 88.5,105.5C 89.5585,106.6 90.3918,107.934 91,109.5C 91.1667,108.833 91.3333,108.167 91.5,107.5C 90.0678,104.673 89.4012,101.673 89.5,98.5C 89.8417,97.6618 90.5084,97.3284 91.5,97.5 Z"/></g>
<g><path style="opacity:0.98" fill="#585758" d="M 90.5,99.5 C 92.9816,101.102 93.815,103.435 93,106.5C 92.1529,104.146 91.3195,101.812 90.5,99.5 Z"/></g>
<g><path style="opacity:0.988" fill="#616162" d="M 93.5,97.5 C 93.8333,97.5 94.1667,97.5 94.5,97.5C 95.874,101.104 96.7073,104.771 97,108.5C 94.9243,105.107 93.7576,101.44 93.5,97.5 Z"/></g>
<g><path style="opacity:0.996" fill="#737373" d="M 121.5,100.5 C 121.369,101.239 121.536,101.906 122,102.5C 123,99.8333 124,99.8333 125,102.5C 125.519,101.484 126.353,100.818 127.5,100.5C 130.028,101.169 130.028,102.002 127.5,103C 130.051,103.002 132.051,103.836 133.5,105.5C 132.167,105.5 130.833,105.5 129.5,105.5C 128.432,104.566 127.099,104.232 125.5,104.5C 125.541,108.243 124.874,108.41 123.5,105C 121.744,104.798 120.078,104.298 118.5,103.5C 118.709,102.914 119.043,102.414 119.5,102C 118.167,101.333 116.833,101.333 115.5,102C 116.815,103.395 116.481,104.395 114.5,105C 115.624,105.249 116.624,105.749 117.5,106.5C 116.253,108.042 116.253,109.542 117.5,111C 117,111.5 116.5,112 116,112.5C 114.89,110.603 114.724,108.77 115.5,107C 114.309,106.302 113.309,105.469 112.5,104.5C 112.577,103.25 113.244,102.417 114.5,102C 113.376,101.751 112.376,101.251 111.5,100.5C 111.667,100.167 111.833,99.8333 112,99.5C 115.057,100.451 118.223,100.784 121.5,100.5 Z"/></g>
<g><path style="opacity:0.98" fill="#797879" d="M 60.5,102.5 C 60.2786,103.735 59.6119,104.735 58.5,105.5C 59.2624,105.911 60.2624,106.077 61.5,106C 59.9571,107.878 58.1238,109.378 56,110.5C 56.7344,107.041 55.7344,106.707 53,109.5C 52.3828,108.551 52.5494,107.718 53.5,107C 52.1667,107 50.8333,107 49.5,107C 51.7632,105.383 53.7632,103.55 55.5,101.5C 57.0174,101.489 58.1841,100.823 59,99.5C 59.6172,100.449 59.4506,101.282 58.5,102C 59.0944,102.464 59.7611,102.631 60.5,102.5 Z"/></g>
<g><path style="opacity:0.965" fill="#5a595a" d="M 76.5,100.5 C 77.1667,102.5 77.8333,104.5 78.5,106.5C 78.1667,106.5 77.8333,106.5 77.5,106.5C 76.3263,105.486 75.6596,104.153 75.5,102.5C 75.3284,101.508 75.6618,100.842 76.5,100.5 Z"/></g>
<g><path style="opacity:0.996" fill="#6c6c6c" d="M 112.5,104.5 C 113.167,106.819 113.334,109.153 113,111.5C 112.102,108.931 110.935,106.598 109.5,104.5C 109.369,103.624 109.702,102.957 110.5,102.5C 111.182,103.243 111.849,103.909 112.5,104.5 Z"/></g>
<g><path style="opacity:0.965" fill="#616061" d="M 27.5,97.5 C 26.1667,99.1667 24.8333,100.833 23.5,102.5C 21.368,102.554 20.0347,103.554 19.5,105.5C 17.5,106.167 15.5,106.833 13.5,107.5C 16.1115,104.564 19.1115,101.898 22.5,99.5C 24.0754,98.5435 25.742,97.8769 27.5,97.5 Z"/></g>
<g><path style="opacity:0.933" fill="#a7a7a8" d="M 36.5,100.5 C 34.0869,102.887 31.4202,105.054 28.5,107C 26.8588,108.129 25.8588,109.629 25.5,111.5C 24.8333,110.833 24.1667,110.167 23.5,109.5C 26.5,106.833 29.5,104.167 32.5,101.5C 33.8333,101.167 35.1667,100.833 36.5,100.5 Z"/></g>
<g><path style="opacity:0.961" fill="#5f5e5f" d="M 40.5,99.5 C 40.5,100.167 40.5,100.833 40.5,101.5C 37.8021,101.845 35.8021,103.178 34.5,105.5C 32.5956,105.738 31.2623,106.738 30.5,108.5C 28.9731,108.427 27.9731,109.094 27.5,110.5C 26.8333,110.833 26.1667,111.167 25.5,111.5C 25.8588,109.629 26.8588,108.129 28.5,107C 31.4202,105.054 34.0869,102.887 36.5,100.5C 37.8333,100.167 39.1667,99.8333 40.5,99.5 Z"/></g>
<g><path style="opacity:0.976" fill="#a2a2a3" d="M 42.5,105.5 C 41.1667,105.833 39.8333,106.167 38.5,106.5C 38.5,105.833 38.5,105.167 38.5,104.5C 40.4944,103.65 42.4944,103.15 44.5,103C 43.6195,103.708 42.9528,104.542 42.5,105.5 Z"/></g>
<g><path style="opacity:0.957" fill="#5c5c5d" d="M 38.5,104.5 C 38.5,105.167 38.5,105.833 38.5,106.5C 37.4168,106.539 36.4168,106.873 35.5,107.5C 34.7025,107.043 34.3691,106.376 34.5,105.5C 35.8333,105.167 37.1667,104.833 38.5,104.5 Z"/></g>
<g><path style="opacity:0.961" fill="#646465" d="M 88.5,98.5 C 88.8333,98.5 89.1667,98.5 89.5,98.5C 89.4012,101.673 90.0678,104.673 91.5,107.5C 91.3333,108.167 91.1667,108.833 91,109.5C 90.3918,107.934 89.5585,106.6 88.5,105.5C 88.1348,102.921 88.1348,100.588 88.5,98.5 Z"/></g>
<g><path style="opacity:0.98" fill="#767676" d="M 96.5,98.5 C 100.534,98.5045 104.534,98.8379 108.5,99.5C 108.65,101.143 108.983,102.81 109.5,104.5C 109.33,105.822 109.663,106.989 110.5,108C 109.256,108.456 108.423,107.956 108,106.5C 107.667,108.167 107.333,109.833 107,111.5C 106,108.833 105,106.167 104,103.5C 103.874,106.063 103.707,108.396 103.5,110.5C 103.167,110.5 102.833,110.5 102.5,110.5C 101.984,107.101 101.15,103.768 100,100.5C 99.4583,103.798 99.9583,106.965 101.5,110C 101.43,110.765 101.097,111.265 100.5,111.5C 100.34,109.847 99.6737,108.514 98.5,107.5C 97.99,104.461 97.3234,101.461 96.5,98.5 Z"/></g>
<g><path style="opacity:0.965" fill="#666666" d="M 32.5,101.5 C 29.5,104.167 26.5,106.833 23.5,109.5C 22.3951,110.6 21.0618,111.267 19.5,111.5C 22.8142,106.991 27.1475,103.657 32.5,101.5 Z"/></g>
<g><path style="opacity:0.976" fill="#9c9c9c" d="M 102.5,110.5 C 102.33,111.822 102.663,112.989 103.5,114C 101.846,114.196 100.846,113.363 100.5,111.5C 101.097,111.265 101.43,110.765 101.5,110C 99.9583,106.965 99.4583,103.798 100,100.5C 101.15,103.768 101.984,107.101 102.5,110.5 Z"/></g>
<g><path style="opacity:0.97" fill="#afaeaf" d="M 66.5,104.5 C 67.4098,106.019 68.2432,107.685 69,109.5C 69.1981,107.618 69.6981,105.952 70.5,104.5C 71.2937,107.802 71.9604,111.135 72.5,114.5C 69.6644,115.776 66.6644,116.442 63.5,116.5C 63.5,115.5 63.5,114.5 63.5,113.5C 64.3764,113.631 65.0431,113.298 65.5,112.5C 64.4798,110.568 64.3131,108.568 65,106.5C 65.3333,107.167 65.6667,107.833 66,108.5C 66.49,107.207 66.6567,105.873 66.5,104.5 Z"/></g>
<g><path style="opacity:0.996" fill="#a2a2a3" d="M 129.5,105.5 C 128.599,106.29 127.932,107.29 127.5,108.5C 126.167,108.5 125.5,109.167 125.5,110.5C 123.504,112.322 121.337,113.989 119,115.5C 116.359,113.94 114.026,114.273 112,116.5C 110.765,115.385 109.598,115.385 108.5,116.5C 107.749,115.624 107.249,114.624 107,113.5C 106.583,114.756 105.75,115.423 104.5,115.5C 104.371,113.784 104.038,112.117 103.5,110.5C 103.707,108.396 103.874,106.063 104,103.5C 105,106.167 106,108.833 107,111.5C 107.333,109.833 107.667,108.167 108,106.5C 108.423,107.956 109.256,108.456 110.5,108C 109.663,106.989 109.33,105.822 109.5,104.5C 110.935,106.598 112.102,108.931 113,111.5C 113.334,109.153 113.167,106.819 112.5,104.5C 113.309,105.469 114.309,106.302 115.5,107C 114.724,108.77 114.89,110.603 116,112.5C 116.5,112 117,111.5 117.5,111C 116.253,109.542 116.253,108.042 117.5,106.5C 116.624,105.749 115.624,105.249 114.5,105C 116.481,104.395 116.815,103.395 115.5,102C 116.833,101.333 118.167,101.333 119.5,102C 119.043,102.414 118.709,102.914 118.5,103.5C 120.078,104.298 121.744,104.798 123.5,105C 124.874,108.41 125.541,108.243 125.5,104.5C 127.099,104.232 128.432,104.566 129.5,105.5 Z"/></g>
<g><path style="opacity:0.047" fill="#f3f3f3" d="M 9.5,50.5 C 10.7095,50.9321 11.7095,51.5987 12.5,52.5C 10.8235,53.1834 10.1568,54.5168 10.5,56.5C 13.003,59.5017 15.003,62.8351 16.5,66.5C 16.5,67.8333 17.1667,68.5 18.5,68.5C 17.962,70.1172 17.6287,71.7839 17.5,73.5C 18.5,73.5 19.5,73.5 20.5,73.5C 20.2322,75.099 20.5655,76.4324 21.5,77.5C 23.0725,78.6873 24.7392,79.6873 26.5,80.5C 26.2627,81.791 26.596,82.791 27.5,83.5C 28.8333,84.5 30.1667,85.5 31.5,86.5C 30.9569,86.56 30.6236,86.8933 30.5,87.5C 31.7658,88.3624 33.0992,89.0291 34.5,89.5C 33.1213,93.7891 34.1213,94.4558 37.5,91.5C 38.1667,92.1667 38.8333,92.8333 39.5,93.5C 40.0431,93.56 40.3764,93.8933 40.5,94.5C 38.8534,96.9341 37.5201,96.9341 36.5,94.5C 35.391,94.5569 34.391,94.8902 33.5,95.5C 30.689,93.9107 28.689,94.5774 27.5,97.5C 25.742,97.8769 24.0754,98.5435 22.5,99.5C 19.1115,101.898 16.1115,104.564 13.5,107.5C 11.368,107.554 10.0347,108.554 9.5,110.5C 9.83333,111.167 10.1667,111.833 10.5,112.5C 9.29534,114.41 9.96201,115.743 12.5,116.5C 13.6039,115.369 13.2705,114.535 11.5,114C 13.9422,112.89 16.1089,111.39 18,109.5C 18.2784,110.416 18.7784,111.082 19.5,111.5C 21.0618,111.267 22.3951,110.6 23.5,109.5C 24.1667,110.167 24.8333,110.833 25.5,111.5C 26.1667,111.167 26.8333,110.833 27.5,110.5C 28.4474,112.455 29.7807,112.789 31.5,111.5C 32.2164,112.311 33.0497,112.978 34,113.5C 35.2607,112.342 36.4274,112.342 37.5,113.5C 45.6821,112.533 54.3488,112.533 63.5,113.5C 63.5,114.5 63.5,115.5 63.5,116.5C 66.6644,116.442 69.6644,115.776 72.5,114.5C 75.8549,116.997 78.5216,119.997 80.5,123.5C 81.1667,124.167 81.8333,124.833 82.5,125.5C 84.4918,125.328 86.1585,125.995 87.5,127.5C 88.1835,127.137 88.8501,126.804 89.5,126.5C 89.5,127.833 90.1667,128.5 91.5,128.5C 94.5725,127.316 97.5725,125.983 100.5,124.5C 99.0677,119.395 95.7344,117.062 90.5,117.5C 90.281,118.675 90.6143,119.675 91.5,120.5C 92.891,119.355 94.2243,119.355 95.5,120.5C 90.7375,124.82 88.4042,123.486 88.5,116.5C 89.791,116.737 90.791,116.404 91.5,115.5C 92.0906,114.849 92.7573,114.182 93.5,113.5C 92.5153,111.902 92.3486,110.235 93,108.5C 93.9309,110.459 94.7643,112.459 95.5,114.5C 97.4027,114.065 99.0693,114.732 100.5,116.5C 101.708,115.766 103.041,115.433 104.5,115.5C 105.75,115.423 106.583,114.756 107,113.5C 107.249,114.624 107.749,115.624 108.5,116.5C 109.598,115.385 110.765,115.385 112,116.5C 114.026,114.273 116.359,113.94 119,115.5C 121.337,113.989 123.504,112.322 125.5,110.5C 127.288,110.785 128.955,110.452 130.5,109.5C 129.675,108.614 128.675,108.281 127.5,108.5C 127.932,107.29 128.599,106.29 129.5,105.5C 130.833,105.5 132.167,105.5 133.5,105.5C 133.833,105.5 134.167,105.5 134.5,105.5C 133.38,107.575 132.38,109.741 131.5,112C 126.112,113.194 121.445,115.694 117.5,119.5C 112.272,119.361 106.938,118.861 101.5,118C 101.167,118.333 100.833,118.667 100.5,119C 103.896,124.646 102.229,127.98 95.5,129C 88.078,129.905 81.2447,128.405 75,124.5C 74.5065,122.866 74.3398,121.199 74.5,119.5C 59.5926,117.355 44.5926,115.688 29.5,114.5C 23.5841,114.816 17.9174,116.15 12.5,118.5C 6.8797,116.29 5.8797,112.624 9.5,107.5C 17.0267,101.578 24.6934,95.9109 32.5,90.5C 27.8377,84.7517 22.8377,79.4184 17.5,74.5C 15.5444,68.0677 12.5444,62.2344 8.5,57C 9.42308,54.9592 9.75642,52.7925 9.5,50.5 Z"/></g>
<g><path style="opacity:0.912" fill="#7a7a7a" d="M 34.5,105.5 C 34.3691,106.376 34.7025,107.043 35.5,107.5C 36.4168,106.873 37.4168,106.539 38.5,106.5C 39.8333,106.167 41.1667,105.833 42.5,105.5C 42.1667,106.167 41.8333,106.833 41.5,107.5C 38.8818,108.945 36.3818,110.611 34,112.5C 33.3828,111.551 33.5494,110.718 34.5,110C 33.451,109.508 32.451,109.674 31.5,110.5C 30.7025,110.043 30.3691,109.376 30.5,108.5C 31.2623,106.738 32.5956,105.738 34.5,105.5 Z"/></g>
<g><path style="opacity:0.894" fill="#b1b1b2" d="M 41.5,107.5 C 41.9382,107.435 42.2716,107.601 42.5,108C 40.2342,109.426 38.5676,111.26 37.5,113.5C 36.4274,112.342 35.2607,112.342 34,113.5C 33.0497,112.978 32.2164,112.311 31.5,111.5C 29.7807,112.789 28.4474,112.455 27.5,110.5C 27.9731,109.094 28.9731,108.427 30.5,108.5C 30.3691,109.376 30.7025,110.043 31.5,110.5C 32.451,109.674 33.451,109.508 34.5,110C 33.5494,110.718 33.3828,111.551 34,112.5C 36.3818,110.611 38.8818,108.945 41.5,107.5 Z"/></g>
<g><path style="opacity:0.847" fill="#bdbdbd" d="M 10.5,112.5 C 10.1667,111.833 9.83333,111.167 9.5,110.5C 16.9757,107.736 17.3091,108.403 10.5,112.5 Z"/></g>
<g><path style="opacity:0.824" fill="#787878" d="M 127.5,108.5 C 128.675,108.281 129.675,108.614 130.5,109.5C 128.955,110.452 127.288,110.785 125.5,110.5C 125.5,109.167 126.167,108.5 127.5,108.5 Z"/></g>
<g><path style="opacity:0.886" fill="#979798" d="M 55.5,101.5 C 53.7632,103.55 51.7632,105.383 49.5,107C 50.8333,107 52.1667,107 53.5,107C 52.5494,107.718 52.3828,108.551 53,109.5C 55.7344,106.707 56.7344,107.041 56,110.5C 58.1238,109.378 59.9571,107.878 61.5,106C 60.2624,106.077 59.2624,105.911 58.5,105.5C 59.6119,104.735 60.2786,103.735 60.5,102.5C 61.4959,102.586 62.3292,102.252 63,101.5C 63.3076,102.308 63.8076,102.975 64.5,103.5C 66.0046,100.869 66.6713,101.203 66.5,104.5C 66.6567,105.873 66.49,107.207 66,108.5C 65.6667,107.833 65.3333,107.167 65,106.5C 64.3131,108.568 64.4798,110.568 65.5,112.5C 65.0431,113.298 64.3764,113.631 63.5,113.5C 54.3488,112.533 45.6821,112.533 37.5,113.5C 38.5676,111.26 40.2342,109.426 42.5,108C 42.2716,107.601 41.9382,107.435 41.5,107.5C 41.8333,106.833 42.1667,106.167 42.5,105.5C 45.6016,103.963 48.2683,101.963 50.5,99.5C 51.8474,98.9717 53.1807,98.805 54.5,99C 51.681,101.575 48.681,103.908 45.5,106C 44.0403,106.811 43.707,107.645 44.5,108.5C 47.9343,105.719 51.6009,103.386 55.5,101.5 Z"/></g>
<g><path style="opacity:0.949" fill="#c1c1c2" d="M 86.5,106.5 C 86.5569,107.609 86.8902,108.609 87.5,109.5C 87.8702,112.267 89.2036,114.267 91.5,115.5C 90.791,116.404 89.791,116.737 88.5,116.5C 87.5067,113.856 86.5067,111.19 85.5,108.5C 85.5427,107.584 85.8761,106.917 86.5,106.5 Z"/></g>
<g><path style="opacity:0.922" fill="#818181" d="M 89.5,124.5 C 89.5,125.167 89.5,125.833 89.5,126.5C 88.8501,126.804 88.1835,127.137 87.5,127.5C 86.1585,125.995 84.4918,125.328 82.5,125.5C 80.6344,119.234 78.9678,112.9 77.5,106.5C 77.8333,106.5 78.1667,106.5 78.5,106.5C 79.6914,110.906 81.1914,115.24 83,119.5C 81.7098,113.906 80.7098,108.239 80,102.5C 82,108.5 84,114.5 86,120.5C 86.4983,122.544 87.665,123.878 89.5,124.5 Z"/></g>
<g><path style="opacity:0.576" fill="#c4c4c4" d="M 98.5,107.5 C 99.6737,108.514 100.34,109.847 100.5,111.5C 100.846,113.363 101.846,114.196 103.5,114C 102.663,112.989 102.33,111.822 102.5,110.5C 102.833,110.5 103.167,110.5 103.5,110.5C 104.038,112.117 104.371,113.784 104.5,115.5C 103.041,115.433 101.708,115.766 100.5,116.5C 99.6766,113.539 99.01,110.539 98.5,107.5 Z"/></g>
<g><path style="opacity:0.894" fill="#bdbdbd" d="M 75.5,102.5 C 75.6596,104.153 76.3263,105.486 77.5,106.5C 78.9678,112.9 80.6344,119.234 82.5,125.5C 81.8333,124.833 81.1667,124.167 80.5,123.5C 78.645,116.956 76.645,110.456 74.5,104C 74.5699,103.235 74.9033,102.735 75.5,102.5 Z"/></g>
<g><path style="opacity:0.004" fill="#fefffe" d="M 16.5,119.5 C 20.054,119.658 21.3873,121.325 20.5,124.5C 17.6014,125.598 14.9347,125.098 12.5,123C 14.3237,122.34 15.657,121.173 16.5,119.5 Z"/></g>
<g><path style="opacity:0.004" fill="#fefffe" d="M 30.5,124.5 C 31.3864,123.224 32.3864,123.224 33.5,124.5C 32.5754,125.562 31.5754,125.562 30.5,124.5 Z"/></g>
<g><path style="opacity:0.992" fill="#393839" d="M 95.5,122.5 C 96.2674,123.172 96.9341,124.005 97.5,125C 95.9387,125.188 95.272,124.355 95.5,122.5 Z"/></g>
<g><path style="opacity:0.922" fill="#504f50" d="M 89.5,124.5 C 91.1765,125.183 91.8432,126.517 91.5,128.5C 90.1667,128.5 89.5,127.833 89.5,126.5C 89.5,125.833 89.5,125.167 89.5,124.5 Z"/></g>
<g><path style="opacity:0.004" fill="#fefffe" d="M 70.5,126.5 C 72.9828,126.73 73.4828,127.397 72,128.5C 70.9701,128.164 70.4701,127.497 70.5,126.5 Z"/></g>
<g><path style="opacity:0.004" fill="#fefffe" d="M 22.5,128.5 C 23.2506,127.427 24.2506,127.26 25.5,128C 24.552,128.483 23.552,128.649 22.5,128.5 Z"/></g>
</svg>
